<svg width="30" height="20" viewBox="0 0 30 20" fill="none" xmlns="http://www.w3.org/2000/svg">
<path d="M27.0028 0.425919C26.6416 0.689411 26.4297 1.12616 26.4297 1.58817V10.6119C26.4297 11.5142 25.2975 12.5213 24.8287 11.7633L17.0526 0.855447C16.7226 0.321244 16.1635 0 15.5522 0H14.9861C14.0032 0 13.201 0.830181 13.201 1.85527V14.1961C13.201 14.4704 13.1003 14.7267 12.9127 14.9216L11.968 15.9034C11.711 16.1705 11.3603 16.3221 10.9991 16.3221H5.73744C5.47349 16.3221 5.2269 16.2138 5.03936 16.0225L3.98356 14.9252C3.79602 14.7303 3.6953 14.474 3.6953 14.1997V1.42575C3.68835 0.638878 3.07363 0 2.31651 0H1.37185C0.614726 0 0 0.638878 0 1.42575V15.2284C0 15.7229 0.18407 16.1885 0.520954 16.5386L3.1153 19.2349C3.45219 19.5851 3.90021 19.7764 4.37601 19.7764H12.5098C12.9856 19.7764 13.4337 19.5851 13.7705 19.2349L16.4865 16.4159C16.7435 16.1488 16.8893 15.7843 16.8893 15.4089V8.00944C16.8893 7.44275 17.2575 7.12873 17.6013 7.02405C17.9451 6.91938 18.4175 6.97713 18.7127 7.45719L26.1449 18.9281C26.4749 19.4623 27.0375 19.7836 27.6488 19.7836H28.6282C29.3853 19.7836 30 19.1447 30 18.3578V1.85527C30 0.429528 28.4441 -0.62444 27.0063 0.425919H27.0028Z" fill="#0000FF"/>
</svg>
